<svg width="5" height="10" viewBox="0 0 5 10" fill="none" xmlns="http://www.w3.org/2000/svg">
<path d="M4.86424 4.6098L1.07685 0.159755C0.989247 0.0567475 0.872312 0 0.747627 0C0.622941 0 0.506006 0.0567475 0.418408 0.159755L0.139492 0.487394C-0.0419999 0.700889 -0.0419999 1.04788 0.139492 1.26105L3.31986 4.99793L0.135964 8.73895C0.0483657 8.84196 0 8.97928 0 9.1257C0 9.27228 0.0483657 9.4096 0.135964 9.51269L0.414879 9.84025C0.502546 9.94325 0.619413 10 0.744098 10C0.868783 10 0.985719 9.94325 1.07332 9.84025L4.86424 5.38614C4.95205 5.2828 5.00028 5.14484 5 4.99817C5.00028 4.85094 4.95205 4.71305 4.86424 4.6098Z" fill="#3B434E"/>
</svg>
