<svg width="24" height="24" viewBox="0 0 24 24" fill="none" xmlns="http://www.w3.org/2000/svg">
<path d="M5.05938 4.00006C5.05884 4.00006 5.05824 4.00006 5.0577 4.00006C4.86854 4.00006 4.69063 4.0738 4.55628 4.20781C4.42046 4.34329 4.34564 4.5237 4.34564 4.71575V15.4474C4.34564 15.841 4.66706 16.1619 5.06221 16.1629C6.72807 16.1669 9.51906 16.5141 11.4445 18.529V7.29799C11.4445 7.16459 11.4104 7.03927 11.3461 6.93556C9.76579 4.39063 6.72902 4.00397 5.05938 4.00006Z" fill="#787D85"/>
<path d="M19.6544 15.4474V4.71569C19.6544 4.52364 19.5796 4.34323 19.4438 4.20774C19.3094 4.07374 19.1314 4 18.9424 4C18.9418 4 18.9412 4 18.9407 4C17.2711 4.00397 14.2343 4.39064 12.654 6.93556C12.5897 7.03927 12.5557 7.16459 12.5557 7.29799V18.5289C14.4811 16.514 17.272 16.1668 18.9379 16.1629C19.333 16.1619 19.6544 15.8409 19.6544 15.4474Z" fill="#787D85"/>
<path d="M21.2845 6.47498H20.7655V15.4475C20.7655 16.4522 19.9469 17.2716 18.9405 17.2741C17.5275 17.2774 15.1977 17.5537 13.5477 19.1154C16.4014 18.4167 19.4098 18.8709 21.1243 19.2616C21.3383 19.3104 21.5595 19.26 21.7311 19.1233C21.902 18.9869 22 18.7831 22 18.5643V7.19053C22.0001 6.79599 21.679 6.47498 21.2845 6.47498Z" fill="#787D85"/>
<path d="M3.23448 15.4475V6.47498H2.71556C2.32108 6.47498 2 6.79599 2 7.19053V18.5641C2 18.783 2.09805 18.9867 2.26896 19.1231C2.44034 19.2597 2.66135 19.3103 2.87576 19.2614C4.59024 18.8707 7.59867 18.4165 10.4523 19.1152C8.80231 17.5536 6.47247 17.2774 5.05947 17.274C4.05321 17.2716 3.23448 16.4523 3.23448 15.4475Z" fill="#787D85"/>
</svg>
