<svg width="24" height="24" viewBox="0 0 24 24" fill="none" xmlns="http://www.w3.org/2000/svg">
<path d="M15.09 4.44638L6.92174 8.62838L3.67499 7.03088L11.6992 3.06863C11.8792 2.97712 12.0952 2.97712 12.2842 3.06863L15.09 4.44638Z" fill="currentColor"/>
<path d="M20.316 7.03084L12.0045 11.1483L8.89202 9.61459L8.44202 9.38584L16.6193 5.20459L17.0693 5.43259L20.316 7.03084Z" fill="currentColor"/>
<path d="M11.3385 12.3348L11.3295 20.9996L3.369 16.8453C3.144 16.7268 3 16.4891 3 16.2333V8.21735L6.3735 9.87935V12.8013C6.3735 13.1756 6.6795 13.4861 7.0485 13.4861C7.4175 13.4861 7.7235 13.1756 7.7235 12.8013V10.5551L8.1735 10.7741L11.3385 12.3348Z" fill="currentColor"/>
<path d="M20.991 8.22638L12.6885 12.3259L12.6795 20.9906L21 16.6459L20.991 8.22638Z" fill="currentColor"/>
</svg>
