<svg width="24" height="24" viewBox="0 0 24 24" fill="none" xmlns="http://www.w3.org/2000/svg">
<path d="M18.0242 11.0912C18.0704 10.7331 18.0938 10.3678 18.0938 10C18.0938 6.69142 16.2013 4 13.875 4C12.39 4 11.0135 5.12502 10.2573 6.91276C9.2365 6.44209 8.18913 6.64391 7.32625 7.4896C6.46338 8.33462 5.94837 9.67253 5.90672 11.1354C4.77237 11.9017 4 13.5332 4 15.3333C4 15.6458 4.05322 15.9505 4.09394 16.2461L4.09441 16.2468C4.39747 18.4219 5.75106 20 7.3125 20H16.6875C18.4966 20 20 17.9063 20 15.3333C20 13.5137 19.2171 11.8756 18.0242 11.0912Z" fill="#787D85"/>
</svg>
