<svg width="24" height="24" viewBox="0 0 24 24" fill="none" xmlns="http://www.w3.org/2000/svg">
<path d="M12.5 14.3264L7.12109 11.972V13.673C7.12109 15.5302 9.43351 16.9305 12.5 16.9305C15.5665 16.9305 17.8789 15.5302 17.8789 13.673V11.972L12.5 14.3264Z" fill="#7653FC"/>
<path d="M21 16.1523C21 15.3933 20.5824 14.7524 20.0039 14.5109V8.4722L21 7.99154L12.5 4L4 7.99154L12.5 11.9831L19.0078 8.94032V14.5109C18.4293 14.7524 18.0117 15.3933 18.0117 16.1523C18.0117 16.8471 18.3623 17.4435 18.8651 17.7254L18.0375 20.6311L18.982 21L19.5059 19.1608L20.0297 21L20.9742 20.6311L20.1466 17.7254C20.6494 17.4436 21 16.8472 21 16.1523Z" fill="#7653FC"/>
</svg>
