<svg width="36" height="36" viewBox="0 0 36 36" fill="none" xmlns="http://www.w3.org/2000/svg">
<path d="M36 1.16129C36 0.519946 35.5278 0 34.9453 0C34.3628 0 33.8906 0.519946 33.8906 1.16129C33.8906 2.42035 32.8925 3.48393 31.7109 3.48393H26.9533C24.2409 1.96381 21.1515 1.16136 18 1.16136C14.8485 1.16136 11.7591 1.96381 9.04669 3.48393H4.30193C3.11344 3.48401 2.10937 2.42035 2.10937 1.16129C2.10937 0.519946 1.63716 0 1.05469 0C0.472219 0 0 0.519946 0 1.16129V4.64522C0 6.79971 0.774422 8.82995 2.18095 10.3678C0.751641 12.9406 0 15.7595 0 18.5807C0 28.1857 8.07476 36 18 36C27.9252 36 36 28.1857 36 18.5807C36 15.7638 35.2505 12.9487 33.8251 10.3789C35.1684 8.90783 36 6.88054 36 4.6453V1.16129ZM18.0001 3.48401C19.6803 3.48401 21.3388 3.73825 22.9164 4.22994C21.7384 4.74973 20.6571 5.53198 19.7333 6.55073C19.0293 7.32701 18.4505 8.20386 18.0065 9.15132C17.5624 8.20386 16.9836 7.32701 16.2797 6.55073C15.3544 5.53043 14.2713 4.74741 13.0912 4.22762C14.6666 3.73748 16.3225 3.48401 18.0001 3.48401ZM18 22.7636C18.3945 23.4844 18.8876 24.1324 19.4586 24.6853L18 27.7144L16.5414 24.6852C17.1124 24.1324 17.6055 23.4843 18 22.7636ZM11.6719 24.3871C8.7641 24.3871 6.39844 21.7824 6.39844 18.5807C6.39844 15.3791 8.7641 12.7743 11.6719 12.7743C14.5796 12.7743 16.9453 15.3791 16.9453 18.5807C16.9453 21.7824 14.5796 24.3871 11.6719 24.3871ZM19.0547 18.5807C19.0547 18.4884 19.0571 18.3966 19.061 18.3053C19.0683 18.2498 19.0734 18.1934 19.0732 18.1356V18.1135C19.2903 15.1297 21.5633 12.7743 24.3281 12.7743C27.2359 12.7743 29.6016 15.3791 29.6016 18.5807C29.6016 21.7824 27.2359 24.3871 24.3281 24.3871C21.4203 24.3871 19.0547 21.7824 19.0547 18.5807ZM2.13033 5.16114C2.78585 5.58199 3.53081 5.80658 4.30193 5.80658H9.28898H9.29412H9.5625C11.5367 5.80658 13.3921 6.6537 14.7869 8.19186C15.9377 9.46091 16.6603 11.0745 16.8765 12.8209C15.6874 11.5182 14.0986 10.658 12.333 10.4847C12.2541 10.4639 12.1721 10.4517 12.0873 10.4517H7.46592C6.31378 10.4517 5.24594 10.0546 4.37133 9.38117C4.31494 9.30948 4.25067 9.24344 4.1767 9.18685C4.12741 9.14915 4.07594 9.11795 4.02342 9.09062C2.96789 8.12861 2.25858 6.73398 2.13033 5.16114ZM33.8906 18.5807C33.8906 26.905 26.7621 33.6774 18 33.6774C9.23787 33.6774 2.10937 26.905 2.10937 18.5807C2.10937 16.2572 2.71828 13.9223 3.87823 11.7663C4.70862 12.2673 5.61783 12.5899 6.56578 12.7151C5.16347 14.1956 4.28906 16.2777 4.28906 18.5807C4.28906 23.063 7.60099 26.7097 11.6719 26.7097C12.7768 26.7097 13.8255 26.4406 14.7675 25.9596L17.0681 30.7376C17.2511 31.1174 17.6096 31.3549 18 31.3549C18.3904 31.3549 18.7489 31.1174 18.9318 30.7376L21.2325 25.9596C22.1745 26.4406 23.2233 26.7097 24.3281 26.7097C28.399 26.7097 31.7109 23.063 31.7109 18.5807C31.7109 16.2784 30.837 14.1968 29.4354 12.7163C30.4005 12.5907 31.3095 12.2633 32.1258 11.7738C33.2831 13.9278 33.8906 16.2602 33.8906 18.5807ZM31.9598 9.10928C31.9149 9.13397 31.8707 9.16115 31.8283 9.19359C31.7601 9.24577 31.7 9.30592 31.6467 9.37103C30.7718 10.0505 29.7018 10.4516 28.5469 10.4516H23.9254C23.8432 10.4516 23.7634 10.463 23.6866 10.4827C21.9203 10.6509 20.3302 11.5065 19.1383 12.805C19.3568 11.0646 20.0786 9.45697 21.2259 8.19178C22.6207 6.65362 24.4761 5.8065 26.4503 5.8065H26.6889C26.6913 5.8065 26.6936 5.80674 26.6959 5.80674C26.6979 5.80674 26.7 5.8065 26.702 5.8065H31.7109C32.4777 5.8065 33.2179 5.58408 33.8692 5.16733C33.739 6.74807 33.023 8.14796 31.9598 9.10928Z" fill="#7653FC"/>
</svg>
