<svg width="156" height="39" viewBox="0 0 156 39" fill="none" xmlns="http://www.w3.org/2000/svg">
<path d="M68.14 21.26C68.14 22.92 67.93 24.43 67.51 25.79C67.11 27.13 66.49 28.29 65.65 29.27C64.83 30.25 63.77 31 62.47 31.52C61.19 32.04 59.68 32.3 57.94 32.3C56.2 32.3 54.68 32.04 53.38 31.52C52.1 30.98 51.04 30.23 50.2 29.27C49.38 28.29 48.76 27.12 48.34 25.76C47.94 24.4 47.74 22.89 47.74 21.23C47.74 19.01 48.1 17.08 48.82 15.44C49.56 13.8 50.68 12.53 52.18 11.63C53.7 10.71 55.63 10.25 57.97 10.25C60.29 10.25 62.2 10.71 63.7 11.63C65.2 12.53 66.31 13.81 67.03 15.47C67.77 17.11 68.14 19.04 68.14 21.26ZM52.51 21.26C52.51 22.76 52.7 24.05 53.08 25.13C53.46 26.21 54.05 27.04 54.85 27.62C55.65 28.2 56.68 28.49 57.94 28.49C59.24 28.49 60.28 28.2 61.06 27.62C61.86 27.04 62.44 26.21 62.8 25.13C63.18 24.05 63.37 22.76 63.37 21.26C63.37 19 62.95 17.23 62.11 15.95C61.27 14.67 59.89 14.03 57.97 14.03C56.69 14.03 55.65 14.32 54.85 14.9C54.05 15.48 53.46 16.31 53.08 17.39C52.7 18.47 52.51 19.76 52.51 21.26ZM98.594 10.58L93.134 32H87.974L85.064 20.75C85.004 20.53 84.924 20.2 84.824 19.76C84.744 19.32 84.644 18.84 84.524 18.32C84.424 17.8 84.334 17.31 84.254 16.85C84.174 16.37 84.114 16 84.074 15.74C84.054 16 83.994 16.37 83.894 16.85C83.814 17.31 83.724 17.8 83.624 18.32C83.524 18.82 83.424 19.3 83.324 19.76C83.224 20.2 83.144 20.54 83.084 20.78L80.204 32H75.044L69.584 10.58H74.054L76.784 22.28C76.864 22.62 76.954 23.04 77.054 23.54C77.154 24.02 77.254 24.53 77.354 25.07C77.454 25.59 77.544 26.1 77.624 26.6C77.724 27.1 77.794 27.53 77.834 27.89C77.874 27.51 77.934 27.08 78.014 26.6C78.094 26.1 78.184 25.6 78.284 25.1C78.384 24.58 78.474 24.1 78.554 23.66C78.654 23.2 78.744 22.84 78.824 22.58L81.944 10.58H86.234L89.354 22.58C89.414 22.84 89.494 23.2 89.594 23.66C89.694 24.1 89.794 24.58 89.894 25.1C89.994 25.62 90.084 26.13 90.164 26.63C90.244 27.11 90.304 27.53 90.344 27.89C90.404 27.39 90.494 26.8 90.614 26.12C90.734 25.42 90.864 24.72 91.004 24.02C91.164 23.32 91.294 22.74 91.394 22.28L94.124 10.58H98.594ZM101.288 32V10.58H105.818V28.25H114.518V32H101.288Z" fill="#7653FC"/>
<path d="M125.352 30.8355C125.72 30.8355 126.056 30.8115 126.36 30.7635C126.68 30.7155 126.968 30.6435 127.224 30.5475V31.3395C126.968 31.4355 126.68 31.5155 126.36 31.5795C126.04 31.6435 125.68 31.6755 125.28 31.6755C124.176 31.6755 123.384 31.3635 122.904 30.7395C122.424 30.1155 122.184 29.2035 122.184 28.0035V19.5315H120.264V18.9075L122.184 18.6915L122.472 15.6195H123.12V18.7155H127.152V19.5315H123.12V27.9315C123.12 28.8755 123.28 29.5955 123.6 30.0915C123.936 30.5875 124.52 30.8355 125.352 30.8355ZM140.403 25.0755C140.403 26.3555 140.195 27.4915 139.779 28.4835C139.379 29.4755 138.763 30.2595 137.931 30.8355C137.099 31.3955 136.059 31.6755 134.811 31.6755C133.611 31.6755 132.595 31.3955 131.763 30.8355C130.947 30.2755 130.323 29.4995 129.891 28.5075C129.475 27.5155 129.267 26.3715 129.267 25.0755C129.267 23.0435 129.763 21.4355 130.755 20.2515C131.763 19.0675 133.155 18.4755 134.931 18.4755C136.195 18.4755 137.227 18.7635 138.027 19.3395C138.827 19.9155 139.419 20.6995 139.803 21.6915C140.203 22.6835 140.403 23.8115 140.403 25.0755ZM130.227 25.0755C130.227 26.7875 130.603 28.1795 131.355 29.2515C132.107 30.3075 133.259 30.8355 134.811 30.8355C135.883 30.8355 136.763 30.5955 137.451 30.1155C138.139 29.6195 138.643 28.9395 138.963 28.0755C139.283 27.2115 139.443 26.2115 139.443 25.0755C139.443 23.9875 139.291 23.0115 138.987 22.1475C138.683 21.2835 138.195 20.5955 137.523 20.0835C136.867 19.5715 136.003 19.3155 134.931 19.3155C133.411 19.3155 132.243 19.8275 131.427 20.8515C130.627 21.8595 130.227 23.2675 130.227 25.0755ZM149.452 18.4755C151.116 18.4755 152.388 19.0275 153.268 20.1315C154.164 21.2355 154.612 22.8515 154.612 24.9795C154.612 27.1235 154.14 28.7795 153.196 29.9475C152.252 31.0995 150.94 31.6755 149.26 31.6755C148.06 31.6755 147.1 31.4035 146.38 30.8595C145.676 30.3155 145.18 29.6595 144.892 28.8915H144.844C144.86 29.3715 144.868 29.8675 144.868 30.3795C144.884 30.8755 144.892 31.3555 144.892 31.8195V37.0515H143.98V18.7155H144.748L144.844 21.4995H144.892C145.084 20.9715 145.38 20.4835 145.78 20.0355C146.18 19.5715 146.684 19.1955 147.292 18.9075C147.9 18.6195 148.62 18.4755 149.452 18.4755ZM149.38 19.3155C147.892 19.3155 146.772 19.8115 146.02 20.8035C145.284 21.7795 144.908 23.1715 144.892 24.9795V25.1235C144.892 27.0595 145.268 28.4995 146.02 29.4435C146.772 30.3715 147.836 30.8355 149.212 30.8355C150.62 30.8355 151.708 30.3315 152.476 29.3235C153.26 28.3155 153.652 26.8675 153.652 24.9795C153.652 21.2035 152.228 19.3155 149.38 19.3155Z" fill="#7653FC"/>
<path d="M36 1.16116C36 0.519824 35.5278 -0.00012207 34.9453 -0.00012207C34.3628 -0.00012207 33.8906 0.519824 33.8906 1.16116C33.8906 2.42023 32.8925 3.48381 31.7109 3.48381H26.9533C24.2409 1.96369 21.1515 1.16124 18 1.16124C14.8485 1.16124 11.7591 1.96369 9.04669 3.48381H4.30193C3.11344 3.48389 2.10938 2.42023 2.10938 1.16116C2.10938 0.519824 1.63716 -0.00012207 1.05469 -0.00012207C0.472219 -0.00012207 0 0.519824 0 1.16116V4.6451C0 6.79959 0.774422 8.82983 2.18095 10.3677C0.751641 12.9405 0 15.7594 0 18.5806C0 28.1856 8.07476 35.9999 18 35.9999C27.9252 35.9999 36 28.1856 36 18.5806C36 15.7637 35.2505 12.9486 33.8251 10.3787C35.1684 8.90771 36 6.88042 36 4.64517V1.16116ZM18.0001 3.48389C19.6803 3.48389 21.3388 3.73813 22.9164 4.22982C21.7384 4.74961 20.6571 5.53185 19.7333 6.55061C19.0293 7.32689 18.4505 8.20374 18.0065 9.15119C17.5624 8.20374 16.9836 7.32689 16.2797 6.55061C15.3544 5.5303 14.2713 4.74729 13.0912 4.2275C14.6666 3.73736 16.3225 3.48389 18.0001 3.48389ZM18 22.7635C18.3945 23.4842 18.8876 24.1322 19.4586 24.6852L18 27.7143L16.5414 24.6851C17.1124 24.1322 17.6055 23.4842 18 22.7635ZM11.6719 24.387C8.7641 24.387 6.39844 21.7823 6.39844 18.5806C6.39844 15.3789 8.7641 12.7742 11.6719 12.7742C14.5796 12.7742 16.9453 15.3789 16.9453 18.5806C16.9453 21.7823 14.5796 24.387 11.6719 24.387ZM19.0547 18.5806C19.0547 18.4882 19.0571 18.3965 19.061 18.3051C19.0683 18.2496 19.0734 18.1933 19.0732 18.1355V18.1134C19.2903 15.1296 21.5633 12.7742 24.3281 12.7742C27.2359 12.7742 29.6016 15.3789 29.6016 18.5806C29.6016 21.7823 27.2359 24.387 24.3281 24.387C21.4203 24.387 19.0547 21.7823 19.0547 18.5806ZM2.13033 5.16102C2.78585 5.58187 3.53081 5.80646 4.30193 5.80646H9.28898H9.29412H9.5625C11.5367 5.80646 13.3921 6.65358 14.7869 8.19174C15.9377 9.46079 16.6603 11.0744 16.8765 12.8208C15.6874 11.5181 14.0986 10.6579 12.333 10.4846C12.2541 10.4638 12.1721 10.4516 12.0873 10.4516H7.46592C6.31378 10.4516 5.24594 10.0545 4.37133 9.38105C4.31494 9.30936 4.25067 9.24332 4.1767 9.18673C4.12741 9.14902 4.07594 9.11782 4.02342 9.0905C2.96789 8.12849 2.25858 6.73386 2.13033 5.16102ZM33.8906 18.5806C33.8906 26.9049 26.7621 33.6773 18 33.6773C9.23787 33.6773 2.10938 26.9049 2.10938 18.5806C2.10938 16.2571 2.71828 13.9221 3.87823 11.7662C4.70862 12.2672 5.61783 12.5898 6.56578 12.7149C5.16347 14.1954 4.28906 16.2776 4.28906 18.5806C4.28906 23.0629 7.60099 26.7096 11.6719 26.7096C12.7768 26.7096 13.8255 26.4405 14.7675 25.9595L17.0681 30.7375C17.2511 31.1173 17.6096 31.3548 18 31.3548C18.3904 31.3548 18.7489 31.1173 18.9319 30.7375L21.2325 25.9595C22.1745 26.4405 23.2233 26.7096 24.3281 26.7096C28.399 26.7096 31.7109 23.0629 31.7109 18.5806C31.7109 16.2783 30.837 14.1967 29.4354 12.7162C30.4005 12.5905 31.3095 12.2632 32.1259 11.7737C33.2831 13.9276 33.8906 16.26 33.8906 18.5806ZM31.9598 9.10915C31.9149 9.13385 31.8707 9.16103 31.8283 9.19346C31.7601 9.24564 31.7 9.3058 31.6467 9.37091C30.7718 10.0504 29.7018 10.4515 28.5469 10.4515H23.9254C23.8432 10.4515 23.7634 10.4629 23.6866 10.4826C21.9203 10.6508 20.3302 11.5064 19.1383 12.8048C19.3568 11.0645 20.0786 9.45684 21.2259 8.19166C22.6207 6.6535 24.4761 5.80638 26.4503 5.80638H26.6889C26.6913 5.80638 26.6936 5.80661 26.6959 5.80661C26.6979 5.80661 26.7 5.80638 26.702 5.80638H31.7109C32.4777 5.80638 33.2179 5.58396 33.8692 5.16721C33.739 6.74795 33.023 8.14784 31.9598 9.10915Z" fill="#7653FC"/>
<path d="M10.5 14.6835L11.5103 17.2744H14.7798L12.1347 18.8758L13.145 21.4667L10.5 19.8654L7.85497 21.4667L8.86528 18.8758L6.22025 17.2744H9.48969L10.5 14.6835Z" fill="#7653FC"/>
<path d="M24.5 14.6835L25.5103 17.2744H28.7798L26.1347 18.8758L27.145 21.4667L24.5 19.8654L21.855 21.4667L22.8653 18.8758L20.2202 17.2744H23.4897L24.5 14.6835Z" fill="#7653FC"/>
</svg>
